PathFileType	4	(X/Y/Z)	/Users/itak/Documents/Research/Walk-IL/dataset/trc/00091_00006.trc
DataRate	CameraRate	NumFrames	NumMarkers	Units	OrigDataRate	OrigDataStartFrame	OrigNumFrames
100.000000	100.000000	4	53	mm	100.000000	129	517
Frame#	Time	RPSI			LPSI			L3			STRN			T10			C7			CLAV			RBAK			LBAK			LSHO			LUPA			LAEL			LAOL			LWTS			LWPS			LFRA			LHPS			LHTS			RSHO			RUPA			RAEL			RAOL			RWTS			RWPS			RFRA			RIFD			RHTS			RBHD			LFHD			RFHD			LBHD			LHIP			RHIP			RASI			LASI			LKNE			LTHI			LANK			LTIP			LTOE			LMT1			LMT5			LHEE			RKNE			RTHI			RANK			RTIP			RTOE			RMT1			RMT5			LIFD			RHPS			RHEE			
		X1	Y1	Z1	X2	Y2	Z2	X3	Y3	Z3	X4	Y4	Z4	X5	Y5	Z5	X6	Y6	Z6	X7	Y7	Z7	X8	Y8	Z8	X9	Y9	Z9	X10	Y10	Z10	X11	Y11	Z11	X12	Y12	Z12	X13	Y13	Z13	X14	Y14	Z14	X15	Y15	Z15	X16	Y16	Z16	X17	Y17	Z17	X18	Y18	Z18	X19	Y19	Z19	X20	Y20	Z20	X21	Y21	Z21	X22	Y22	Z22	X23	Y23	Z23	X24	Y24	Z24	X25	Y25	Z25	X26	Y26	Z26	X27	Y27	Z27	X28	Y28	Z28	X29	Y29	Z29	X30	Y30	Z30	X31	Y31	Z31	X32	Y32	Z32	X33	Y33	Z33	X34	Y34	Z34	X35	Y35	Z35	X36	Y36	Z36	X37	Y37	Z37	X38	Y38	Z38	X39	Y39	Z39	X40	Y40	Z40	X41	Y41	Z41	X42	Y42	Z42	X43	Y43	Z43	X44	Y44	Z44	X45	Y45	Z45	X46	Y46	Z46	X47	Y47	Z47	X48	Y48	Z48	X49	Y49	Z49	X50	Y50	Z50	X51	Y51	Z51	X52	Y52	Z52	X53	Y53	Z53	

130	1.29	-1337.271484375	1036.359741210938	-157.6510162353516	-1348.28466796875	1025.393920898438	-332.7420043945312	-1339.106079101562	1086.447509765625	-251.4232788085938	-1086.404663085938	1286.79443359375	-244.0065155029297	-1357.306396484375	1221.725952148438	-255.9519195556641	-1295.763671875	1488.1474609375	-254.5366058349609	-1116.366088867188	1401.744140625	-245.7944793701172	-1361.633056640625	1348.441284179688	-182.8678741455078	-1313.404052734375	1451.5625	-358.2122192382812	-1206.134521484375	1456.40966796875	-425.9786376953125	-1220.025756835938	1328.31494140625	-503.5497436523438	-1200.023315429688	1113.448486328125	-521.1649780273438	-1266.046142578125	1099.180908203125	-438.1595153808594	-1108.95654296875	876.381591796875	-451.7098388671875	-1164.596435546875	863.3970947265625	-512.5675048828125	-1178.023559570312	1004.512756347656	-526.3317260742188	-1129.480346679688	783.4716186523438	-505.9750061035156	-1082.722412109375	796.1649169921875	-453.3831787109375	-1239.951782226562	1447.363403320312	-75.73642730712891	-1252.766235351562	1376.04736328125	-12.50305557250977	-1277.32275390625	1107.785766601562	3.192065477371216	-1259.155151367188	1090.1513671875	-93.32850646972656	-1132.864379882812	858.9888916015625	-34.52518844604492	-1205.3330078125	842.3587646484375	12.31227874755859	-1263.776245117188	1029.14990234375	7.50382137298584	-1125.514038085938	672.5628662109375	-54.81218338012695	-1106.802001953125	758.9451904296875	-33.7479248046875	-1266.568969726562	1656.252563476562	-179.6429901123047	-1072.58837890625	1703.975952148438	-277.3943176269531	-1100.796752929688	1692.092895507812	-155.3052215576172	-1245.237670898438	1675.918701171875	-314.5330200195312	-1242.296997070312	960.7888793945312	-420.8584289550781	-1269.149658203125	965.8911743164062	-78.69611358642578	-1145.50244140625	983.2141723632812	-100.0653457641602	-1131.176147460938	972.7393188476562	-368.1831359863281	-1159.172241210938	498.4329833984375	-350.2976379394531	-1193.090576171875	636.3054809570312	-393.1561279296875	-1311.518920898438	51.67977905273438	-355.567626953125	-1240.815795898438	259.8158264160156	-364.5538024902344	-1105.21875	46.58917999267578	-342.9733276367188	-1154.678588867188	47.92038726806641	-292.7021484375	-1207.524169921875	43.17346954345703	-390.5528869628906	-1364.010986328125	48.98320770263672	-279.1711120605469	-1190.50732421875	520.685546875	-107.6143798828125	-1184.590942382812	790.954833984375	-72.38724517822266	-1296.3125	44.85132217407227	-114.5955200195312	-1214.587646484375	397.0995788574219	-103.4301681518555	-1084.788940429688	43.966552734375	-172.2322998046875	-1151.1123046875	49.80671691894531	-203.5221557617188	-1170.407104492188	49.22845077514648	-110.0668869018555	-1094.505249023438	694.4058227539062	-423.7997131347656	-1167.809692382812	754.1712036132812	17.4311695098877	-1348.343139648438	46.5285758972168	-166.8036804199219	
131	1.3	-1336.516845703125	1036.3974609375	-158.1970367431641	-1347.455688476562	1025.390502929688	-333.3008422851562	-1338.268676757812	1086.436157226562	-251.9750671386719	-1085.483642578125	1286.685546875	-244.4550476074219	-1356.423706054688	1221.729370117188	-256.4647216796875	-1294.787475585938	1488.12060546875	-254.9822082519531	-1115.48681640625	1401.620727539062	-246.2425842285156	-1360.76318359375	1348.406494140625	-183.3509063720703	-1312.408447265625	1451.5966796875	-358.6393432617188	-1205.193969726562	1456.400634765625	-426.4237365722656	-1219.12939453125	1328.321044921875	-503.9905700683594	-1199.308349609375	1113.393676757812	-521.5385131835938	-1265.385620117188	1099.232421875	-438.564453125	-1108.296020507812	876.443115234375	-451.7919921875	-1163.869262695312	863.3661499023438	-512.6385498046875	-1177.240600585938	1004.461486816406	-526.5758666992188	-1128.7060546875	783.4127807617188	-505.9208374023438	-1081.902587890625	796.1953125	-453.3284301757812	-1239.013916015625	1447.293090820312	-76.16646575927734	-1251.847900390625	1375.946899414062	-12.94624137878418	-1276.5390625	1107.705688476562	2.767904758453369	-1258.169311523438	1090.031127929688	-93.66562652587891	-1132.035766601562	858.9613037109375	-34.81093215942383	-1204.523803710938	842.2948608398438	11.9738826751709	-1262.940063476562	1029.068481445312	7.142603397369385	-1124.50634765625	672.504150390625	-55.02571487426758	-1105.987060546875	758.8981323242188	-34.00321960449219	-1265.618896484375	1656.163452148438	-180.0243377685547	-1071.5986328125	1703.865356445312	-277.6897583007812	-1099.856567382812	1691.97802734375	-155.5978698730469	-1244.21728515625	1675.8681640625	-314.9115600585938	-1241.54345703125	960.7454223632812	-421.4618835449219	-1268.53271484375	965.8978881835938	-79.22129821777344	-1144.838256835938	983.1394653320312	-100.4827499389648	-1130.347045898438	972.568603515625	-368.5993957519531	-1158.89599609375	498.3077087402344	-350.5537719726562	-1192.5537109375	636.1742553710938	-393.4375915527344	-1311.519165039062	51.66712951660156	-355.5779113769531	-1240.690307617188	259.7384948730469	-364.638671875	-1105.243774414062	46.5977897644043	-342.943603515625	-1154.697509765625	47.91403961181641	-292.701904296875	-1207.53173828125	43.18159103393555	-390.5559387207031	-1364.017700195312	48.98995590209961	-279.188232421875	-1189.995483398438	520.6170654296875	-107.868278503418	-1184.011108398438	790.8959350585938	-72.87005615234375	-1296.3076171875	44.84393692016602	-114.5795745849609	-1214.206298828125	397.075439453125	-103.5926666259766	-1084.7998046875	43.98142623901367	-172.2117462158203	-1151.111694335938	49.82820129394531	-203.5195770263672	-1170.381958007812	49.20049667358398	-110.0253677368164	-1093.876220703125	694.4740600585938	-423.8117065429688	-1167.021728515625	754.1228637695312	17.19510269165039	-1348.359497070312	46.50329208374023	-166.7854461669922	
132	1.31	-1335.749633789062	1036.419311523438	-158.7631378173828	-1346.594848632812	1025.384765625	-333.8721008300781	-1337.426025390625	1086.426025390625	-252.5555114746094	-1084.54150390625	1286.5791015625	-244.9257965087891	-1355.514404296875	1221.72802734375	-257.0150756835938	-1293.810546875	1488.103149414062	-255.4827423095703	-1114.576904296875	1401.496704101562	-246.6997375488281	-1359.852172851562	1348.372680664062	-183.860107421875	-1311.361572265625	1451.629516601562	-359.0927734375	-1204.203002929688	1456.391479492188	-426.889892578125	-1218.16064453125	1328.33349609375	-504.4573669433594	-1198.534057617188	1113.3447265625	-521.9481811523438	-1264.701171875	1099.284790039062	-439.02197265625	-1107.546630859375	876.5100708007812	-451.91259765625	-1163.073608398438	863.3322143554688	-512.7564697265625	-1176.434692382812	1004.42041015625	-526.8693237304688	-1127.904907226562	783.3583984375	-505.9216003417969	-1081.081909179688	796.218505859375	-453.3268432617188	-1238.057495117188	1447.218872070312	-76.62075805664062	-1250.9208984375	1375.84130859375	-13.41714572906494	-1275.751342773438	1107.62841796875	2.316634654998779	-1257.177490234375	1089.90625	-94.03871917724609	-1131.188232421875	858.9231567382812	-35.11747741699219	-1203.677734375	842.2273559570312	11.62855052947998	-1262.098510742188	1028.988159179688	6.757626533508301	-1123.47509765625	672.4506225585938	-55.24665451049805	-1105.13427734375	758.8636474609375	-34.30167770385742	-1264.6396484375	1656.072021484375	-180.4364013671875	-1070.551391601562	1703.74755859375	-277.9874877929688	-1098.878051757812	1691.85791015625	-155.8991241455078	-1243.152465820312	1675.831665039062	-315.3124389648438	-1240.774536132812	960.7050170898438	-422.1009826660156	-1267.89697265625	965.880615234375	-79.78169250488281	-1144.125732421875	983.0841674804688	-100.9292297363281	-1129.49462890625	972.4269409179688	-369.0316162109375	-1158.629638671875	498.1876525878906	-350.8284912109375	-1192.02197265625	636.0397338867188	-393.735595703125	-1311.520141601562	51.65385818481445	-355.5906982421875	-1240.574829101562	259.666015625	-364.7426452636719	-1105.268798828125	46.59944534301758	-342.9037475585938	-1154.719604492188	47.89018630981445	-292.6885375976562	-1207.538208007812	43.18901824951172	-390.5562744140625	-1364.025024414062	48.99625015258789	-279.2156677246094	-1189.37841796875	520.5247802734375	-108.1756210327148	-1183.405883789062	790.881103515625	-73.38449096679688	-1296.304565429688	44.83933258056641	-114.5679931640625	-1213.722045898438	397.0586242675781	-103.8081741333008	-1084.8095703125	43.99212646484375	-172.1924285888672	-1151.1025390625	49.84371566772461	-203.5224609375	-1170.354248046875	49.17092132568359	-109.9881896972656	-1093.179565429688	694.53369140625	-423.88916015625	-1166.240844726562	754.0677490234375	16.97561264038086	-1348.368896484375	46.48863983154297	-166.7698059082031	
133	1.32	-1334.960571289062	1036.425170898438	-159.3457489013672	-1345.70703125	1025.374877929688	-334.4547119140625	-1336.580322265625	1086.4169921875	-253.1630706787109	-1083.583740234375	1286.472900390625	-245.4192047119141	-1354.577758789062	1221.721557617188	-257.599853515625	-1292.833618164062	1488.091186523438	-256.0366516113281	-1113.626220703125	1401.373046875	-247.1639862060547	-1358.898193359375	1348.33984375	-184.3949737548828	-1310.268188476562	1451.657592773438	-359.5758666992188	-1203.158081054688	1456.382202148438	-427.3758239746094	-1217.116943359375	1328.351196289062	-504.948974609375	-1197.690063476562	1113.30078125	-522.3923950195312	-1263.979858398438	1099.335693359375	-439.5304260253906	-1106.702758789062	876.5756225585938	-452.0677490234375	-1162.203735351562	863.29052734375	-512.9213256835938	-1175.602416992188	1004.387084960938	-527.2119140625	-1127.079345703125	783.3093872070312	-505.9817504882812	-1080.257446289062	796.2444458007812	-453.3733520507812	-1237.082885742188	1447.139770507812	-77.09967041015625	-1249.985473632812	1375.731689453125	-13.91619682312012	-1274.961059570312	1107.5556640625	1.839702725410461	-1256.205322265625	1089.780883789062	-94.45914459228516	-1130.316040039062	858.8692016601562	-35.44681167602539	-1202.794677734375	842.15771484375	11.27591228485107	-1261.262084960938	1028.909057617188	6.345732688903809	-1122.445434570312	672.4095458984375	-55.47171020507812	-1104.23876953125	758.841552734375	-34.63729476928711	-1263.629760742188	1655.979125976562	-180.8799438476562	-1069.44921875	1703.626708984375	-278.2874755859375	-1097.865112304688	1691.73388671875	-156.2094879150391	-1242.041625976562	1675.806884765625	-315.734375	-1239.99462890625	960.6648559570312	-422.7803649902344	-1267.222778320312	965.8403930664062	-80.36697387695312	-1143.367309570312	983.038818359375	-101.4145050048828	-1128.638061523438	972.3048095703125	-369.4832458496094	-1158.359619140625	498.0686950683594	-351.1175231933594	-1191.488525390625	635.9006958007812	-394.0479736328125	-1311.523559570312	51.63862609863281	-355.6067199707031	-1240.462280273438	259.5958862304688	-364.8656311035156	-1105.294799804688	46.59620666503906	-342.8541870117188	-1154.751220703125	47.84662246704102	-292.657958984375	-1207.544921875	43.19610214233398	-390.5536499023438	-1364.0341796875	49.0008430480957	-279.2566833496094	-1188.635375976562	520.4116821289062	-108.5441589355469	-1182.753540039062	790.9088134765625	-73.91748809814453	-1296.302734375	44.83458709716797	-114.5590362548828	-1213.12255859375	397.0499267578125	-104.0825500488281	-1084.818969726562	43.99966812133789	-172.1750640869141	-1151.087036132812	49.85387802124023	-203.5310668945312	-1170.324096679688	49.14070129394531	-109.9542694091797	-1092.430908203125	694.56884765625	-424.0363159179688	-1165.464965820312	754.0109252929688	16.7584171295166	-1348.373657226562	46.48657989501953	-166.7560577392578	
